<svg width="20" height="18" viewBox="0 0 20 18" fill="none" xmlns="http://www.w3.org/2000/svg">
<path d="M4.91671 10.3782L0.400396 8.89051C0.400396 8.89051 -0.138793 8.66927 0.0342305 8.16742C0.0696399 8.06331 0.142069 7.97546 0.356135 7.82336C1.35726 7.11817 18.8817 0.751907 18.8817 0.751907C19.1344 0.662236 19.4062 0.642852 19.6688 0.695784C19.741 0.718432 19.806 0.760018 19.8572 0.816309C19.9084 0.872601 19.9439 0.941588 19.9601 1.01625C19.9913 1.14801 20.0043 1.28351 19.9987 1.41887C19.9987 1.536 19.9834 1.64499 19.973 1.8158C19.8659 3.5556 16.6735 16.5468 16.6735 16.5468C16.6735 16.5468 16.4827 17.3065 15.7979 17.3325C15.6292 17.3386 15.4611 17.3101 15.3036 17.2489C15.1461 17.1877 15.0024 17.0949 14.8813 16.9762C13.5373 15.8074 8.89303 12.6532 7.86696 11.9594C7.84464 11.9432 7.82593 11.9224 7.81207 11.8985C7.7982 11.8745 7.78948 11.8479 7.78649 11.8203C7.772 11.7471 7.85087 11.6576 7.85087 11.6576C7.85087 11.6576 15.9371 4.39256 16.152 3.63043C16.1689 3.57187 16.1061 3.54259 16.0216 3.5678C15.484 3.76789 6.17375 9.70957 5.14607 10.366C5.07161 10.3881 4.99306 10.3922 4.91671 10.3782Z" fill="white"/>
</svg>
